<?xml version="1.0" encoding="utf-8"?>
<!-- Generator: Adobe Illustrator 26.0.2, SVG Export Plug-In . SVG Version: 6.00 Build 0)  -->
<svg version="1.1" id="Ebene_1" xmlns="http://www.w3.org/2000/svg" xmlns:xlink="http://www.w3.org/1999/xlink" x="0px" y="0px"
	 viewBox="0 0 191.1 59" style="enable-background:new 0 0 191.1 59;" xml:space="preserve">
<style type="text/css">
	.st0{fill:#07E516;}
	.st1{fill:none;stroke:#07E516;stroke-width:2.83;stroke-miterlimit:10;}
</style>
<g>
	<path class="st0" d="M18.9,23.9v14.3l7.3-5.6h-2c-0.2,0-0.4-0.1-0.6-0.2c-0.1-0.1-0.2-0.3-0.2-0.6c0-0.2,0.1-0.4,0.2-0.6
		c0.2-0.2,0.4-0.3,0.6-0.2h6c0.2,0,0.4,0.1,0.6,0.2c0.1,0.2,0.2,0.4,0.2,0.6c0,0.2-0.1,0.4-0.2,0.5c-0.1,0.1-0.3,0.2-0.5,0.2h-1.6
		l-6,4.7l6.5,6.9h1.7c0.2,0,0.4,0.1,0.6,0.2c0.1,0.1,0.2,0.3,0.2,0.5c0,0.2-0.1,0.4-0.2,0.6c-0.1,0.2-0.4,0.2-0.6,0.2h-6
		c-0.2,0-0.4-0.1-0.6-0.2C24.1,45.4,24,45.2,24,45c0-0.2,0.1-0.4,0.2-0.6c0.2-0.2,0.4-0.2,0.6-0.2H27l-5.7-6.1l-2.4,1.8v4.3h1.4
		c0.2,0,0.4,0.1,0.5,0.2c0.1,0.1,0.2,0.3,0.2,0.5c0,0.2-0.1,0.4-0.2,0.6c-0.1,0.2-0.4,0.2-0.6,0.2h-6.4c-0.2,0-0.5-0.1-0.6-0.2
		c-0.3-0.3-0.3-0.8,0-1.1c0,0,0,0,0,0c0.2-0.2,0.4-0.2,0.6-0.2h3.3v-19l-3.2,0.5h-0.1c-0.2,0-0.4-0.1-0.6-0.2
		c-0.1-0.2-0.2-0.4-0.2-0.6c0-0.2,0-0.4,0.1-0.5c0.1-0.2,0.3-0.2,0.5-0.3l4.5-0.8h0.2c0.2,0,0.4,0,0.5,0.2
		C18.8,23.6,18.9,23.7,18.9,23.9z"/>
	<path class="st0" d="M49.2,36.5c0.1-1.2-0.2-2.4-0.9-3.4c-0.7-0.9-1.9-1.3-3-1.2c-0.7,0-1.5,0.1-2.2,0.2c-0.7,0.1-1.4,0.4-2,0.7
		c0,0.7-0.1,1.5-0.3,2.2c-0.1,0.4-0.5,0.7-0.9,0.8c-0.3,0-0.6-0.1-0.8-0.4c-0.2-0.3-0.3-0.6-0.3-1c0-0.8,0.3-1.5,0.8-2.1
		c0.6-0.7,1.5-1.2,2.3-1.4c1.1-0.4,2.3-0.5,3.4-0.5c1.2-0.1,2.4,0.2,3.4,0.8c0.9,0.6,1.5,1.4,1.8,2.4c0.4,1.3,0.5,2.5,0.5,3.8v6
		c0,0.3,0.1,0.6,0.3,0.9c0.2,0.2,0.5,0.3,0.7,0.2c0.4,0,0.7-0.1,1-0.3c0.3-0.2,0.6-0.4,0.9-0.6c0.1-0.1,0.3-0.2,0.5-0.2
		c0.2,0,0.4,0.1,0.5,0.2c0.1,0.2,0.2,0.4,0.2,0.6c0,0.2-0.1,0.3-0.2,0.5c-0.4,0.4-0.9,0.8-1.4,1c-0.5,0.2-1.1,0.4-1.6,0.4
		c-0.6,0-1.2-0.1-1.6-0.5c-0.5-0.5-0.9-1.1-0.9-1.8c-0.7,0.8-1.6,1.4-2.6,1.8c-1.2,0.5-2.4,0.7-3.7,0.7c-1.2,0.1-2.4-0.3-3.3-1.2
		c-0.8-0.8-1.3-2-1.2-3.1c-0.1-1.1,0.4-2.3,1.2-3c0.9-0.7,2-1.2,3.1-1.3c1.6-0.3,3.3-0.4,4.9-0.5l1.4-0.1L49.2,36.5z M49.2,42.2v-4
		l-0.8,0.1c-2.1,0.2-3.6,0.4-4.7,0.6c-0.9,0.1-1.7,0.5-2.5,1c-0.6,0.5-1,1.2-0.9,2c-0.1,0.8,0.2,1.6,0.8,2.1
		c0.6,0.5,1.4,0.7,2.1,0.7c1.1,0,2.3-0.2,3.3-0.6C47.5,43.6,48.4,43,49.2,42.2L49.2,42.2z"/>
	<path class="st0" d="M74.3,35.5c0.1-1-0.2-1.9-0.8-2.7c-0.7-0.7-1.6-1.1-2.6-1c-1.1,0-2.2,0.2-3.1,0.7c-0.9,0.4-1.6,1-2.2,1.7
		c-0.5,0.6-0.7,1.3-0.8,2v7.9h2c0.3,0,0.5,0.2,0.7,0.4c0.2,0.1,0.2,0.3,0.2,0.5c0,0.2-0.1,0.3-0.2,0.5c-0.2,0.2-0.4,0.3-0.7,0.2H61
		c-0.2,0-0.5-0.1-0.6-0.2c-0.2-0.1-0.2-0.4-0.2-0.6c0-0.2,0.1-0.4,0.2-0.5c0.2-0.2,0.4-0.2,0.6-0.2h2V25l-2.8,0.2
		c-0.2,0-0.4,0-0.5-0.2c-0.1-0.1-0.2-0.3-0.2-0.5c0-0.2,0.1-0.4,0.2-0.5c0.1-0.2,0.3-0.3,0.5-0.3l3.6-0.4H64c0.5,0,0.8,0.2,0.8,0.7
		v9.6c0.3-0.6,0.8-1.2,1.4-1.7c0.6-0.5,1.4-0.9,2.1-1.2c0.8-0.3,1.6-0.4,2.5-0.4c1.5-0.1,2.9,0.4,4,1.4c0.9,1.1,1.4,2.5,1.3,3.9v8.6
		h2.1c0.2,0,0.4,0.1,0.6,0.2c0.1,0.1,0.2,0.3,0.2,0.5c0,0.2-0.1,0.4-0.2,0.6c-0.2,0.2-0.4,0.3-0.6,0.2h-6.5c-0.2,0-0.5-0.1-0.7-0.2
		c-0.1-0.2-0.2-0.4-0.2-0.6c0-0.2,0.1-0.4,0.2-0.5c0.2-0.2,0.4-0.2,0.6-0.2h2.8L74.3,35.5z"/>
	<path class="st0" d="M98.4,34.1v-2.3c-1.6,0-3.1,0.3-4.5,1c-1.2,0.6-2.2,1.6-2.7,2.9v8.5h6.4c0.2,0,0.4,0.1,0.6,0.2
		c0.1,0.2,0.2,0.3,0.2,0.6c0,0.2-0.1,0.4-0.2,0.5c-0.1,0.2-0.4,0.2-0.6,0.2H85.9c-0.2,0-0.5-0.1-0.7-0.2c-0.1-0.1-0.2-0.4-0.2-0.6
		c0-0.2,0.1-0.4,0.2-0.5c0.2-0.2,0.4-0.2,0.6-0.2h3.5V32.3L87,32.8c-0.1,0-0.2,0-0.2,0c-0.2,0-0.4-0.1-0.6-0.2
		C86.1,32.4,86,32.2,86,32c0-0.2,0.1-0.3,0.2-0.5c0.1-0.1,0.3-0.2,0.4-0.2l3.2-0.7c0.1,0,0.3-0.1,0.4-0.1c0.2,0,0.4,0.1,0.6,0.3
		c0.1,0.3,0.2,0.5,0.2,0.8l0.1,2c1.5-2.2,3.9-3.3,7.5-3.3c0.4,0,0.9,0.1,1.3,0.3c0.3,0.2,0.4,0.5,0.4,0.9v2.6c0,0.3-0.1,0.6-0.3,0.8
		c-0.2,0.2-0.4,0.3-0.7,0.3c-0.2,0-0.5-0.1-0.6-0.2C98.5,34.7,98.4,34.4,98.4,34.1z"/>
	<path class="st0" d="M118.3,44.1c0,0.5-0.2,1.1-0.6,1.4c-0.4,0.4-0.9,0.6-1.4,0.6c-0.5,0-1.1-0.2-1.4-0.6c-0.8-0.8-0.8-2.1,0-2.9
		c0.8-0.8,2.1-0.8,2.9,0C118.1,43,118.3,43.5,118.3,44.1z"/>
	<path class="st0" d="M129.8,43c0.2-0.3,0.6-0.5,1-0.5h4.7V16.5h-4.6c-0.4,0-0.8-0.2-1-0.5c-0.2-0.4-0.3-0.8-0.3-1.2
		c0-0.4,0.1-0.8,0.4-1.1c0.2-0.3,0.6-0.5,1-0.5h13.6c0.4,0,0.8,0.2,1,0.5c0.2,0.3,0.4,0.7,0.4,1.1c0,0.4-0.1,0.9-0.3,1.2
		c-0.2,0.4-0.6,0.6-1.1,0.5h-4.6v25.9h4.6c0.4,0,0.8,0.2,1.1,0.5c0.2,0.4,0.3,0.8,0.3,1.2c0,0.4-0.1,0.8-0.4,1.1
		c-0.2,0.3-0.6,0.5-1,0.5h-13.6c-0.4,0-0.8-0.2-1-0.5c-0.2-0.3-0.4-0.7-0.4-1.1C129.5,43.8,129.6,43.3,129.8,43z"/>
	<path class="st0" d="M148.3,22.8c-0.2-0.3-0.4-0.7-0.3-1.1l0.3-7.1c0-0.4,0.1-0.8,0.3-1.1c0.2-0.3,0.6-0.4,0.9-0.4h27.5
		c0.3,0,0.7,0.1,0.9,0.4c0.2,0.3,0.3,0.7,0.3,1.1l0.3,7.1c0,0.4-0.1,0.8-0.3,1.1c-0.2,0.3-0.6,0.5-1,0.4c-0.4,0-0.8-0.1-1.1-0.3
		c-0.3-0.2-0.5-0.6-0.5-1l-0.5-5.4h-9.7v25.9h5c0.4,0,0.8,0.2,1,0.5c0.2,0.4,0.3,0.8,0.3,1.2c0,0.4-0.1,0.8-0.4,1.1
		c-0.2,0.3-0.6,0.5-1,0.5h-14.4c-0.4,0-0.8-0.2-1-0.5c-0.2-0.3-0.4-0.7-0.4-1.1c0-0.4,0.1-0.9,0.3-1.2c0.2-0.3,0.6-0.5,1-0.5h5V16.5
		h-9.3l-0.6,5.5c0,0.4-0.2,0.8-0.5,1c-0.3,0.2-0.7,0.3-1.1,0.3C148.9,23.3,148.5,23.1,148.3,22.8z"/>
	<line class="st1" x1="0" y1="1.3" x2="25" y2="1.3"/>
	<line class="st1" x1="1.5" y1="25" x2="1.5" y2="0"/>
	<line class="st1" x1="191.1" y1="57.7" x2="166.1" y2="57.7"/>
	<line class="st1" x1="189.7" y1="34" x2="189.7" y2="59"/>
</g>
</svg>
