<?xml version="1.0" standalone="no"?>
<!DOCTYPE svg PUBLIC "-//W3C//DTD SVG 20010904//EN"
 "http://www.w3.org/TR/2001/REC-SVG-20010904/DTD/svg10.dtd">
<svg version="1.0" xmlns="http://www.w3.org/2000/svg"
 width="700.000000pt" height="700.000000pt" viewBox="0 0 700.000000 700.000000"
 preserveAspectRatio="xMidYMid meet">
<metadata>
Created by potrace 1.14, written by Peter Selinger 2001-2017
</metadata>
<g transform="translate(0.000000,700.000000) scale(0.100000,-0.100000)"
fill="#000000" stroke="none">
<path d="M0 6125 l0 -875 100 0 100 0 0 775 0 775 775 0 775 0 0 100 0 100
-875 0 -875 0 0 -875z"/>
<path d="M1152 5418 c-112 -22 -134 -37 -111 -79 10 -20 16 -21 78 -15 36 4
83 9 104 13 l37 6 0 -512 0 -511 -93 0 c-107 0 -134 -11 -124 -52 4 -15 16
-28 29 -32 13 -3 100 -6 195 -6 181 0 203 5 203 49 0 28 -21 41 -67 41 l-43 0
1 118 0 117 62 44 61 44 152 -159 152 -159 -63 -3 c-47 -2 -67 -8 -80 -22 -16
-18 -17 -21 -1 -45 l16 -25 175 0 c144 0 176 3 189 16 38 38 5 74 -68 74 l-52
0 -166 178 c-91 97 -167 182 -169 187 -2 6 68 65 155 133 155 120 159 122 210
122 28 0 56 4 62 8 19 13 23 39 8 61 -14 20 -23 21 -194 21 -149 0 -181 -3
-194 -16 -38 -37 -12 -68 64 -74 l62 -5 -183 -140 c-101 -77 -186 -141 -191
-143 -4 -2 -8 169 -8 380 0 285 -3 387 -12 396 -16 16 -74 13 -196 -10z"/>
<path d="M3646 5429 c-84 -10 -106 -20 -106 -49 0 -34 23 -41 109 -34 l81 7 0
-517 0 -516 -56 0 c-67 0 -94 -13 -94 -45 0 -14 8 -29 19 -35 11 -6 90 -10
185 -10 153 0 168 2 186 20 16 16 18 25 11 39 -14 25 -33 31 -97 31 l-54 0 0
227 c0 209 2 230 21 269 43 91 154 155 279 162 92 5 136 -10 176 -64 l29 -37
3 -279 3 -278 -76 0 c-42 0 -85 -5 -96 -10 -24 -13 -25 -42 -1 -63 16 -15 46
-17 210 -17 185 0 191 1 206 22 13 19 14 25 2 43 -11 16 -26 21 -80 23 l-66 3
0 267 c-1 286 -4 308 -54 381 -96 138 -384 124 -515 -26 l-41 -45 -2 268 -3
269 -50 1 c-27 1 -86 -2 -129 -7z"/>
<path d="M2683 5060 c-83 -15 -161 -49 -203 -88 -56 -54 -73 -135 -38 -179 12
-15 56 -17 76 -5 15 10 32 66 32 109 0 25 6 36 28 47 78 40 241 48 308 15 54
-25 93 -99 101 -186 l5 -59 -143 -12 c-248 -21 -336 -50 -396 -129 -24 -31
-29 -48 -31 -113 -5 -89 14 -137 72 -187 50 -45 94 -56 200 -51 106 6 183 31
252 85 25 19 47 33 48 31 1 -2 9 -20 18 -40 24 -51 66 -71 140 -66 101 7 183
87 133 128 -13 11 -20 11 -33 2 -74 -54 -127 -68 -150 -39 -6 7 -12 111 -15
247 -5 256 -16 322 -61 390 -29 44 -71 74 -126 90 -52 16 -158 20 -217 10z
m307 -527 l0 -108 -35 -28 c-102 -81 -283 -121 -365 -79 -44 22 -80 75 -80
119 0 80 55 140 150 163 57 14 232 38 288 39 l42 1 0 -107z"/>
<path d="M5535 5060 c-108 -19 -201 -65 -253 -125 -17 -19 -34 -35 -37 -35 -3
0 -5 27 -5 59 0 102 -2 103 -152 72 -117 -24 -147 -51 -95 -85 22 -15 31 -14
135 9 l22 5 0 -320 0 -320 -99 0 c-102 0 -131 -10 -131 -45 0 -7 7 -21 16 -29
13 -14 59 -16 344 -16 328 0 329 0 344 22 13 19 14 25 2 43 -13 19 -25 20
-195 23 l-181 2 0 226 c0 203 2 229 19 263 48 93 197 171 328 171 l43 0 0 -69
c0 -74 14 -101 50 -101 39 0 50 26 50 124 0 81 -3 95 -20 111 -24 22 -108 28
-185 15z"/>
<path d="M3622 3890 c-42 -17 -49 -59 -60 -353 -13 -310 -9 -337 45 -358 38
-14 97 -2 123 26 20 22 26 48 46 232 12 115 23 209 23 211 1 1 152 2 336 2
l335 0 0 -930 0 -930 -196 0 c-121 0 -203 -4 -216 -11 -26 -14 -48 -68 -48
-120 0 -33 6 -47 34 -75 l34 -34 556 2 c552 3 556 3 577 24 44 45 41 151 -6
191 -25 22 -33 23 -221 23 l-194 0 0 930 0 930 345 0 345 0 4 -22 c3 -13 14
-108 25 -212 19 -173 23 -192 45 -214 15 -16 39 -26 68 -29 37 -4 49 -1 74 20
l29 25 -3 202 c-2 110 -7 253 -11 316 -6 99 -11 118 -30 137 l-22 22 -1007 2
c-603 1 -1016 -2 -1030 -7z"/>
<path d="M1996 3859 c-50 -59 -29 -176 35 -198 19 -6 103 -11 201 -11 l168 0
-2 -927 -3 -928 -187 -3 -187 -2 -25 -31 c-48 -57 -30 -173 31 -198 21 -8 169
-11 547 -9 l518 3 23 29 c43 54 40 133 -7 183 -21 22 -26 23 -205 23 l-183 0
0 930 0 930 164 0 c93 0 177 5 195 11 71 25 88 143 29 206 l-21 23 -533 0
-532 0 -26 -31z"/>
<path d="M1188 1846 c-56 -20 -85 -42 -115 -88 -38 -56 -44 -156 -15 -215 70
-136 241 -164 349 -57 114 115 64 313 -91 359 -60 18 -80 18 -128 1z"/>
<path d="M6798 978 l-3 -773 -772 -3 -773 -2 0 -94 0 -94 873 -4 c479 -2 872
-3 872 -3 0 0 -1 393 -3 873 l-4 872 -94 0 -94 0 -2 -772z"/>
</g>
</svg>
